<?xml version="1.0" encoding="utf-8"?>
<!-- Generator: Adobe Illustrator 15.0.0, SVG Export Plug-In . SVG Version: 6.00 Build 0)  -->
<!DOCTYPE svg PUBLIC "-//W3C//DTD SVG 1.1//EN" "http://www.w3.org/Graphics/SVG/1.1/DTD/svg11.dtd">
<svg version="1.1" xmlns="http://www.w3.org/2000/svg" xmlns:xlink="http://www.w3.org/1999/xlink" x="0px" y="0px"
	 width="1984.25px" height="2834.649px" viewBox="0 0 1984.25 2834.649" enable-background="new 0 0 1984.25 2834.649"
	 xml:space="preserve">
<g id="Layer_1">
	<g>
		<path d="M1050.756,2320v187.691H890.965V2320c-213.056-30.437-339.872-169.936-423.572-314.507l136.963-91.311
			c78.628,134.428,154.719,220.664,286.609,243.49v-748.227c-192.764-101.455-377.919-223.199-377.919-499.663
			c0-248.564,177.547-377.919,377.919-405.818V316.274h159.791v190.227c139.499,22.827,253.637,101.455,329.727,197.836
			l-111.599,114.136c-55.801-73.554-124.282-129.354-218.128-149.645v644.235c205.445,106.527,421.036,223.2,421.036,532.638
			C1471.792,2122.164,1327.219,2292.099,1050.756,2320z M890.965,668.829c-124.282,22.826-215.592,109.063-215.592,240.954
			c0,154.718,91.31,246.027,215.592,319.581V668.829z M1050.756,1493.147v667.062c175.008-25.362,263.781-134.427,263.781-314.507
			C1314.537,1673.227,1195.328,1576.845,1050.756,1493.147z"/>
	</g>
</g>
<g id="Layer_2">
	<path fill="none" d="M500.625,2033.825c25.332-27.976,51.105-57.98,79.381-83.184c0.301,47.963-8.826,104.783-15.652,153.407
		c4.78-48.462,40.077-93.627,51.353-139.772c5.969,60.601-9.623,120.933-7.24,181.624c34.498-5.428,47.879-56.605,75.206-75.846
		c6.688,37.449-0.231,78.571-7.234,115.525c14.058-16.396,19.914-40.868,35.959-55.004c1.023,36.635-1.042,73.32,0.155,109.959
		c14.74-22.812,24.891-49.253,39.383-72.812c2.133,20.202,0.393,40.991,0.36,61.452c21.271-33.879,41.007-69.069,65.77-100.636
		c4.658,25.912,1.399,57.389,3.058,85.46c5.166-9.33,11.924-17.145,15.994-27.771c-0.646,19.791-1.725,42.669,1.67,60.453
		c15.421-21.492,28.749-44.403,43.662-66.262c4.234,24.017-1.413,50.799-1.854,76.334c15.981-28.528,31.923-58.041,61.947-74.697
		c4.195,32.293,2.661,66.789,1.435,99.773c21.337-32.548,33.15-70.651,55.803-102.188c18.955,24.029,0.784,86.373-4.167,115.137
		c9.292-31.154,28.006-67.792,53.405-88.758c6.931,21.885,4.311,45.742,11,68.001c36.147-15.622,47.438-76.475,88.716-93.425
		c0.182,18.117-0.684,36.21,0.261,54.33c28.022-36.754,29.391-96.74,59.789-134.781c-0.217,34.149,5.535,67.982,2.872,102.14
		c26.167-41.802,34.137-95.818,70.238-131.655c13.993,23.346,4.708,60.826,9.405,89.994c21.719-45.109,33.845-93.565,60.188-136.754
		c11.571,33.897,5.285,71.479,9.066,106.871c20.758-1.702,99.938-229.155,115.505-257.316c-8.36,28.088-20.014,61.056-53.086,58.123
		c-2.083-24.37-3.1-48.78-3.048-73.229c-5.223-2.029-8.46,0.436-9.713,7.393c-3.136-38.866,1.27-79.96-2.498-119.778
		c-6.78,25.726-13.671,51.422-20.669,77.09c-4.129-44.082,8.48-89.025,15.049-132.559c-14.221,34.975-28.895,69.761-44.021,104.356
		c-41.806-14.775-8.66-151.005-5.441-188.527c-10.731-0.495-31.352,57.096-38.731,70.235
		c-19.362-20.762-34.526-175.325-49.922-164.422c-10.738-40.641-16.457-82.367-22.911-123.841
		c-8.016,0.655-39.054,80.78-41.585,86.356c-25.234-4.055-6.994-38.458-20.807-57.493c-16.737,26.607-32.541,53.763-47.408,81.464
		c-30.28-13.97-19.525-50.282-22.465-78.475c0.104,16.915-3.354,33.071-10.375,48.47c-24.14-24.948-22.418-70.783-32.791-103.3
		c-14.964,10.968-18.809,25.833-31.217,40.845c-17.666-19.011-12.994-47.23-33.672-58.972c-8.82,19.244-10.897,50.954-26.408,64.841
		c-6.779-36.044-7.883-81.902-24.076-109.904c-10.876,18.855-18.604,39.151-29.545,57.955
		c-13.288-32.636-18.931-72.301-39.274-96.82c-6.492,18.306-13.282,35.484-24.47,51.393c-10.578-39.719-10.466-86.5-35.551-121.849
		c-11.797,15.459-18.515,35.244-24.699,53.205c-0.725-5.991-0.553-11.955,0.514-17.893c-5.081,22.685-13.44,46.531-28.435,64.658
		c-9.411-16.896-7.898-42.808-9.465-64.062c-7.881,7.291-19.767,20.518-26.093,28.966c-3.608-23.645-3.398-56.763-13.174-74.9
		c-3.977,6.033-8.701,11.394-14.171,16.082c-4.433-42.385,3.259-86.044-4.262-128.192c-10.131,15.056-18.257,31.098-28.137,46.362
		c-2.009-17.759-0.45-36.73-0.076-55.044c-20.34,10.862-35.403,31.788-53.483,45.039c-0.024-34.247,5.32-75.558-2.987-106.079
		c-12.301,13.274-22.68,27.118-36.417,38.861c4.66-44.108,27.582-84.33,32.659-129.068c-13.857,15.018-32.667,33.365-46.181,51.455
		c-24.324-6.012,3.329-151.963,6.685-180.773c2.658,14.503,3.793,29.702,3.351,44.566c28.084-46.028,16.986-114.858,42.158-165.29
		c21.571,46.902,16.271,125.953,13.081,176.331c1.829-42.035,4.17-83.818,11.445-125.341c2.761,10.101,7.317,20.183,9.118,30.797
		c-0.598-29.212,2.186-158.16,28.392-165.739c2.813,22.19,1.616,39.069,13.607,57.285c3.547-27.66,0.171-57.462,11.381-81.643
		c24.246,52.254,3.592,124.104,30.484,171.632c5.138-31.498,3.35-68.726,19.018-97.323c7.838,14.945,7.603,33.763,17.309,46.214
		c24.159-33.256,31.81-73.018,50.94-108.691c23.589,14.099,22.762,53.998,20.134,80.871c8.571-36.001,12.452-78.437,31.118-110.834
		c3.106,13.574,7.1,29.704,14.3,42.554c3.423-9.772,12.029-20.611,14.419-31.193c6.831,17.686,5.167,44.294,11.927,65.344
		c24.854-25.438,31.993-67.548,59.946-93.162c11.542,28.053,9.382,64.448,24.482,92.215c6.074-15.872,12.694-31.449,19.915-46.854
		c16.465,28.992,0.463,77.952,7.94,108.437c16.003-32.053,36.087-68.711,62.396-92.436c2.575,1.972,1.132,5.945,4.658,7.891
		c15.479-6.792,28.675-16.513,42.052-26.973c9.629,21.353,0.977,54.981,0.233,80.583c7.569-15.011,15.769-29.625,24.634-43.897
		c6.065,11.625,10.998,22.751,11.024,37.148c9.614-3.018,23.965,1.319,33.71-2.971c3.205,19.893-2.099,40.756,9.279,56.859
		c12.999-13.546,20.771-31.621,28.372-48.896c0.646,21.001-1.132,42.069,1.123,62.831c10.32-12.736,21.354-26.094,38.18-28.252
		c4.085,17.217,5.907,25.083,9.657,43.383c4.311,8.358,3.031,1.14,3.139-3.011"/>
	<path fill="none" d="M968.625,349.825c-18.515,24.329-43.162,53.471-45.213,85.171c29.231-2.867,39.565-44.734,60.432-64.457
		c25.316,36.98-31.712,113.87-38.381,153.729c12.145,0.462,27.216-5.57,38.573-14.717c-6.491,77.259-14.045,138.188-39.555,216.568
		c7.289-5.836,21.376-16.84,31.527-24.619c4.042,24.39-19.082,53.822-23.77,80.403c18.038,6.396,34.457-2.6,49.721,7.661
		c-3,64.382-60.117,118.562-66.632,183.001c20.416,0.298,43.007-14.296,63.521-22.296c-7.851,22.7-25.221,49.542-38.446,72.801
		c16.852-9.307,31.471-20.113,47.143-8.054c-7.402,30.941-31.752,53.592-39.647,83.705c2.943,2.761,6.285,3.619,9.676,5.711
		c-12.311,33.474-37.302,67.001-32.671,103.968c3.364,1.396,6.866,2.131,10.507,2.205c-16.777,24.18-42.827,41.815-52.141,70.864
		c32.371,2.841,67.026-7.854,98.992,0.103c-10.921,40.84-45.775,63.453-49.665,109.278c17.955-5.782,32.562-16.874,45.128-30.922
		c-30.555,34.397-72.847,75.887-89.884,118.796c31.412-15.146,60.624-16.02,91.692,3.247c3.872,31.003-26.808,66.043-34.97,94.214
		c-10.529,36.337-28.164,90.971-24.694,129.778c41.086-12.226,68.771-52.826,91.914-87.213
		c-14.157,50.954-55.522,91.798-71.18,141.746c4.033-2.46,18.317-7.081,22.694-10.426c-15.937,24.318-40.745,46.821-46.622,76.032
		c3.679,1.161,7.57-0.001,11.361,0.979c1.519,25.744,0.597,51.973,0.398,77.853c6.645-2.369,30.443-3.968,35.356-6.745
		c-29.786,32.05-65.965,66.729-80.108,109.198c32.564-12.975,58.348-56.895,91.318-65.54c-7.914,31.465-29.083,56.415-38.412,87.409
		c16.026-2.937,30.401-13.912,43.265-24.804c-28.744,40.786-58.565,94.472-63.869,144.664c3.925-5.472,8.611-10.91,12.53-15.19
		c-2.851,30.998-16.432,60.537-17.05,91.267c20.466-16.425,44.87-31.979,71.85-35.83c-14.599,52.606-53.812,98.453-68.504,152.956
		c6.729-11.995,17.887-21.227,30.489-24.599c-7.77,30.312-30.172,55.546-32.337,87.805c2.415-2.399,4.747-4.877,6.998-7.433
		c1.688,18.636,0.262,37.704-0.08,56.509c22.841-2.805,43.566-20.011,64.545-32.36c-7.073,20.887-17.619,42.772-29.996,61.74
		c20.288-25.57,10.609-68.242,10.023-98.787c-5.878,6.844-14.902,11.694-20.216,20.462c21.096-74.843,35.94-121.263,28.885-195.645
		c-6.637-69.972-32.271-147.728-31.938-217.005c0.089-18.555-8.235-24.89,6.442-42.116c1.143,2.349,2.841,4.204,5.097,5.566
		c5.859-5.685,3.603-10.277,3.907-18.634"/>
</g>
</svg>
