<?xml version="1.0" encoding="utf-8"?>
<!-- Generator: Adobe Illustrator 16.0.0, SVG Export Plug-In . SVG Version: 6.00 Build 0)  -->
<!DOCTYPE svg PUBLIC "-//W3C//DTD SVG 1.1//EN" "http://www.w3.org/Graphics/SVG/1.1/DTD/svg11.dtd">
<svg version="1.1" id="Layer_1" xmlns="http://www.w3.org/2000/svg" xmlns:xlink="http://www.w3.org/1999/xlink" x="0px" y="0px"
	 width="850.39px" height="1133.86px" viewBox="0 0 850.39 1133.86" enable-background="new 0 0 850.39 1133.86"
	 xml:space="preserve">
<g>
	<path fill="none" stroke="#000000" stroke-miterlimit="10" d="M325.359,1053.201l-6.435-25.061l-212.342-78.231l-2.371-10.837
		l-2.709-13.208l217.76-79.925l6.096-24.722h7.79v89.745h-7.79l-6.096-26.755l-63.668,23.029v83.312l61.975,22.013l7.79-39.284h7.79
		v79.924H325.359z M239,984.791v-71.796l-100.244,35.898v0.338L239,984.791z"/>
	<path fill="none" stroke="#000000" stroke-miterlimit="10" d="M298.267,808.691c-27.094,0-39.624-19.643-48.768-55.202
		l-8.467-33.528h-19.304c-25.4,0-40.978,12.869-40.978,31.157c0,9.483,3.048,17.272,6.773,21.675l34.543,1.693
		c1.016,3.726,1.693,8.467,1.693,13.885c0,9.821-5.418,16.595-14.224,16.595c-16.594,0-40.978-30.479-40.978-67.732
		c0-34.883,16.255-49.106,49.106-49.106h93.132c7.451,0,9.821-2.032,9.821-10.498v-16.934h5.419c0,0,11.176,19.981,11.176,33.188
		c0,17.95-10.498,24.723-26.754,25.4v1.354c14.901,12.869,27.771,25.062,27.771,47.074
		C338.229,787.355,325.698,808.691,298.267,808.691z M298.605,719.961h-48.768l11.176,33.189
		c5.418,16.595,14.901,23.029,27.431,23.029c14.562,0,28.109-8.128,28.109-25.739C316.554,736.556,306.733,726.058,298.605,719.961z
		"/>
</g>
</svg>
