<?xml version="1.0" encoding="utf-8"?>
<!-- Generator: Adobe Illustrator 16.0.0, SVG Export Plug-In . SVG Version: 6.00 Build 0)  -->
<!DOCTYPE svg PUBLIC "-//W3C//DTD SVG 1.1//EN" "http://www.w3.org/Graphics/SVG/1.1/DTD/svg11.dtd">
<svg version="1.1" id="Layer_1" xmlns="http://www.w3.org/2000/svg" xmlns:xlink="http://www.w3.org/1999/xlink" x="0px" y="0px"
	 width="850.39px" height="1133.86px" viewBox="0 0 850.39 1133.86" enable-background="new 0 0 850.39 1133.86"
	 xml:space="preserve">
<g>
	<path fill="#231F20" d="M340.262,299.979c-13.087-3.952-22.962-11.33-29.611-22.131c-6.651-10.801-9.98-23.481-9.98-38.037
		c0-14.336,3.329-26.749,9.98-37.249c6.648-10.494,16.309-17.716,28.991-21.663L543.527,117v53.619l-183.034,61.71
		c-3.949,1.261-5.926,3.65-5.926,7.178c0,3.326,1.977,5.612,5.926,6.863l183.034,60.472v56.417L340.262,299.979L340.262,299.979z
		 M366.979,960.521c-3.098,0-5.944-0.775-8.528-2.333c-2.585-1.549-4.086-3.68-4.501-6.378c-0.62-3.117,0.047-5.869,2.021-8.26
		c1.976-2.381,4.609-4.094,7.92-5.13l9.011-2.807l137.661-39.224c13.478-3.942,23.621-12.344,30.457-25.217
		c5.799-10.998,8.699-24.694,8.699-41.096c0-18.671-5.397-32.784-16.198-42.329c-10.806-9.546-26.178-14.326-46.129-14.326h-181.39
		v53.896h183.276c4.355,0,6.947,2.392,7.782,7.175c0.621,2.711-0.046,5.15-2.023,7.328c-1.963,2.188-4.392,3.688-7.294,4.52
		l-16.472,5.307l-120.885,34.296c-15.323,4.376-27.443,12.585-36.349,24.647c-8.905,12.06-13.367,26.087-13.367,42.088
		c0,19.342,3.628,33.687,10.879,43.039c9.534,12.062,26.119,18.083,49.737,18.083h181.851v-53.28H379.38H366.979L366.979,960.521z
		 M543.527,591.828l-179.636,57.664c-2.275,0.632-4.191,1.676-5.75,3.127c-1.55,1.455-2.333,3.227-2.333,5.298
		c0,4.569,2.807,7.686,8.401,9.35l179.318,57.038l-0.39,57.046l-201.697-62.652c-13.068-4.151-23.135-11.896-30.191-23.223
		c-7.048-11.326-10.58-24.056-10.58-38.187c0-25.976,11.499-44.678,34.491-56.109l4.354-2.179l149.795-47.077l3.415-1.865V425.991
		c0-6.018-2.266-11.056-6.807-15.114c-4.534-4.047-9.979-6.081-16.318-6.081c-5.276,0-9.76,1.506-13.456,4.514
		c-3.699,3.004-5.549,6.791-5.549,11.354v7.773v69.653c0,18.247-7.79,33.49-23.378,45.724
		c-14.548,11.407-31.692,17.104-51.44,17.104c-20.579,0-37.2-5.709-49.882-17.145c-13.921-12.468-20.89-30.348-20.89-53.63V362.01
		h50.802v125.717c0,5.806,2.428,10.483,7.279,14.005c4.859,3.528,10.483,5.288,16.881,5.288c5.577,0,10.377-1.654,14.407-4.979
		c4.025-3.308,6.039-7.555,6.039-12.75v-3.11v-64.067c0-19.902,6.254-36.645,18.751-50.225c12.51-13.58,29.17-20.371,49.989-20.371
		c19.998,0,37.192,5.854,51.562,17.547c15.213,12.336,22.812,27.663,22.812,46.022v9.037v113.469V591.828L543.527,591.828z"/>
</g>
</svg>
