<?xml version="1.0" encoding="utf-8"?>
<!-- Generator: Adobe Illustrator 16.0.0, SVG Export Plug-In . SVG Version: 6.00 Build 0)  -->
<!DOCTYPE svg PUBLIC "-//W3C//DTD SVG 1.1//EN" "http://www.w3.org/Graphics/SVG/1.1/DTD/svg11.dtd">
<svg version="1.1" id="Layer_1" xmlns="http://www.w3.org/2000/svg" xmlns:xlink="http://www.w3.org/1999/xlink" x="0px" y="0px"
	 width="850.39px" height="1133.86px" viewBox="0 0 850.39 1133.86" enable-background="new 0 0 850.39 1133.86"
	 xml:space="preserve">
<path fill="none" d="M780.573,1065.065c-36.976-3.623-76.698-29.062-111.553-41.375c-11.554-4.082-56.593-11.394-58.572-28.539
	c-2.958-25.621,55.22-39.491,69.2-44.601c20.281-7.412,65.534-15.583,79.578-33.82c-17.297-15.891-69.018-20.561-88.415-24.901
	c-36.23-8.107-86.203-10.492-119.703-26.624c9.175-15.254,32.66-20.543,47.849-27.586c11.414-5.294,48.313-16.067,50.817-32.947
	c-17.754-22.554-73.384-22.414-99.334-30.674c28.364-13.516,60.507-20.602,89.797-31.752c30.834-11.806,61.011-25.097,90.531-39.871
	c12.662-3.051,22.846-9.393,30.551-19.024c-38.541-29.169-93.795-38.82-139.175-53.461c20.553-4.86,64.308-3.559,77.379-22.743
	c-2.803-9.109-33.021-15.438-36.065-16.38c-14.438-4.473-87.18-14.222-92.195-30.369c36.469-13.137,103.155-38.223,110.463-84.245
	c4.261-26.834-33.335-37.367-45.127-56.533c6.406-14.465,44.604-13.583,58.033-22.914c-5.002-16.86-26.905-25.542-34.021-41.483
	c-4.53-10.149-2.212-17.471-2.403-28.021c-0.377-20.719-2.305-26.202-14.127-45.097"/>
</svg>
